<svg width="800" height="800" viewBox="0 0 800 800" fill="none" xmlns="http://www.w3.org/2000/svg">
<path opacity="0.1" d="M26.7806 231.801C16.4116 189.307 42.4542 146.453 84.9484 136.084L533.78 26.5648L591.356 262.522L648.931 498.479L540.023 678.59L235.459 752.907C192.965 763.276 150.111 737.233 139.742 694.739L26.7806 231.801Z" fill="#FFE600"/>
<path opacity="0.2" d="M83.8794 221.645C78.195 178.275 108.745 138.508 152.115 132.824L610.197 72.7849L641.761 313.605L673.324 554.426L545.468 721.619L234.626 762.36C191.256 768.044 151.49 737.494 145.806 694.124L83.8794 221.645Z" fill="#FFE600"/>
<path d="M137.366 236.445C137.366 178.124 184.644 130.845 242.966 130.845H678.566V373.725V616.605L530.066 765.765L242.966 765.765C184.644 765.765 137.366 718.487 137.366 660.165V236.445Z" fill="#FFE600"/>
<path fill-rule="evenodd" clip-rule="evenodd" d="M534.428 531.314L537.125 538.487C541.086 548.956 547.237 558.459 555.166 566.359C563.096 574.26 572.621 580.375 583.105 584.298L590.508 587.087C591.606 587.498 592.613 588.121 593.471 588.921C594.328 589.721 595.019 590.683 595.505 591.751C595.99 592.818 596.26 593.971 596.3 595.144C596.339 596.316 596.147 597.484 595.734 598.582C595.289 599.777 594.592 600.862 593.69 601.764C592.788 602.666 591.703 603.363 590.508 603.808L583.059 606.598C572.575 610.52 563.05 616.636 555.12 624.536C547.191 632.437 541.04 641.94 537.079 652.409L534.627 659.045C533.788 661.26 532.106 663.052 529.948 664.028C527.791 665.005 525.334 665.087 523.117 664.256C521.895 663.796 520.79 663.073 519.878 662.138C518.967 661.203 518.273 660.079 517.844 658.846L516.22 654.248C512.374 643.272 506.141 633.285 497.97 625.008C489.8 616.731 479.894 610.37 468.968 606.383L462.669 604.084C461.567 603.682 460.556 603.067 459.692 602.274C458.829 601.481 458.13 600.526 457.636 599.462C457.142 598.399 456.863 597.249 456.814 596.077C456.765 594.906 456.947 593.736 457.35 592.635C457.805 591.391 458.53 590.262 459.474 589.332C460.417 588.402 461.556 587.693 462.807 587.256L467.037 585.723C478.021 581.906 488.023 575.701 496.321 567.554C504.619 559.408 511.007 549.522 515.024 538.609L517.676 531.375C518.494 529.152 520.161 527.345 522.31 526.351C524.46 525.356 526.917 525.256 529.14 526.072C530.346 526.515 531.442 527.213 532.355 528.117C533.267 529.022 533.974 530.112 534.428 531.314Z" fill="black"/>
<rect x="212.606" y="252.285" width="256.08" height="52.8" rx="26.4" fill="black"/>
<rect x="212.606" y="363.165" width="158.4" height="52.8" rx="26.4" fill="black"/>
</svg>
