<svg width="800" height="800" viewBox="0 0 800 800" fill="none" xmlns="http://www.w3.org/2000/svg">
<g clip-path="url(#clip0_7_4)">
<path opacity="0.1" d="M63.9916 207.661C54.7025 169.592 78.0329 131.201 116.102 121.912L518.19 23.7983L569.77 235.182L621.35 446.566L523.784 607.919L250.938 674.496C212.869 683.785 174.478 660.455 165.189 622.386L63.9916 207.661Z" fill="#FFE600"/>
<path opacity="0.2" d="M115.144 198.562C110.052 159.709 137.42 124.084 176.274 118.991L586.65 65.2048L614.926 280.945L643.202 496.686L528.661 646.467L250.192 682.965C211.338 688.058 175.713 660.689 170.621 621.836L115.144 198.562Z" fill="#FFE600"/>
<path d="M163.06 211.821C163.06 159.574 205.415 117.219 257.663 117.219H647.898V334.804V552.39L514.863 686.016L257.663 686.016C205.415 686.016 163.06 643.661 163.06 591.413V211.821Z" fill="#FFE600"/>
<path fill-rule="evenodd" clip-rule="evenodd" d="M518.771 475.981L521.187 482.407C524.736 491.786 530.246 500.299 537.349 507.377C544.453 514.454 552.987 519.933 562.379 523.447L569.01 525.946C569.994 526.314 570.897 526.872 571.665 527.589C572.433 528.306 573.052 529.167 573.487 530.124C573.922 531.08 574.164 532.113 574.199 533.163C574.234 534.213 574.062 535.26 573.692 536.244C573.293 537.314 572.669 538.287 571.861 539.094C571.053 539.902 570.081 540.527 569.01 540.926L562.337 543.425C552.945 546.938 544.412 552.417 537.308 559.495C530.205 566.573 524.694 575.086 521.146 584.465L518.949 590.41C518.198 592.394 516.691 593.999 514.758 594.874C512.825 595.749 510.624 595.823 508.638 595.079C507.543 594.666 506.553 594.018 505.737 593.181C504.92 592.343 504.298 591.336 503.914 590.232L502.459 586.113C499.014 576.279 493.43 567.333 486.11 559.918C478.79 552.503 469.916 546.804 460.128 543.233L454.485 541.173C453.498 540.813 452.592 540.262 451.819 539.552C451.045 538.841 450.419 537.985 449.976 537.032C449.534 536.08 449.284 535.049 449.24 534C449.196 532.95 449.359 531.903 449.721 530.916C450.128 529.801 450.777 528.791 451.623 527.957C452.468 527.124 453.488 526.488 454.609 526.097L458.398 524.724C468.239 521.305 477.199 515.746 484.632 508.447C492.066 501.149 497.789 492.293 501.388 482.517L503.763 476.036C504.496 474.045 505.989 472.426 507.915 471.535C509.841 470.644 512.042 470.554 514.034 471.285C515.114 471.682 516.096 472.307 516.914 473.117C517.731 473.927 518.364 474.904 518.771 475.981Z" fill="black"/>
<rect x="230.464" y="226.011" width="229.411" height="47.3012" rx="23.6506" fill="black"/>
<rect x="230.464" y="325.344" width="141.904" height="47.3012" rx="23.6506" fill="black"/>
</g>
<defs>
<clipPath id="clip0_7_4">
<rect width="800" height="800" fill="white"/>
</clipPath>
</defs>
</svg>
